<?xml version="1.0" encoding="UTF-8" standalone="no"?>
<svg
   xmlns:dc="http://purl.org/dc/elements/1.1/"
   xmlns:cc="http://creativecommons.org/ns#"
   xmlns:rdf="http://www.w3.org/1999/02/22-rdf-syntax-ns#"
   xmlns:svg="http://www.w3.org/2000/svg"
   xmlns="http://www.w3.org/2000/svg"
   xmlns:sodipodi="http://sodipodi.sourceforge.net/DTD/sodipodi-0.dtd"
   xmlns:inkscape="http://www.inkscape.org/namespaces/inkscape"
   data-name="Слой 1"
   id="Слой_1"
   viewBox="0 0 128 128"
   version="1.1"
   sodipodi:docname="keepassxc-proxy-access.svg"
   inkscape:version="1.0.1 (3bc2e813f5, 2020-09-07, custom)">
  <metadata
     id="metadata41">
    <rdf:RDF>
      <cc:Work
         rdf:about="">
        <dc:format>image/svg+xml</dc:format>
        <dc:type
           rdf:resource="http://purl.org/dc/dcmitype/StillImage" />
      </cc:Work>
    </rdf:RDF>
  </metadata>
  <sodipodi:namedview
     pagecolor="#ffffff"
     bordercolor="#666666"
     borderopacity="1"
     objecttolerance="10"
     gridtolerance="10"
     guidetolerance="10"
     inkscape:pageopacity="0"
     inkscape:pageshadow="2"
     inkscape:window-width="2048"
     inkscape:window-height="1088"
     id="namedview39"
     showgrid="false"
     inkscape:zoom="5.7421875"
     inkscape:cx="64"
     inkscape:cy="64"
     inkscape:window-x="0"
     inkscape:window-y="27"
     inkscape:window-maximized="1"
     inkscape:current-layer="Слой_1" />
  <defs
     id="defs4">
    <style
       id="style2">.cls-1{fill:#fff;}.cls-2{fill:#bebebe;}.cls-3{fill:#9f9f9f;}.cls-4{fill:#404040;}</style>
    <linearGradient
       id="SVGID_1_"
       gradientUnits="userSpaceOnUse"
       x1="50"
       y1="-654.86328"
       x2="50"
       y2="-728.46722"
       gradientTransform="matrix(0.6,0,0,-0.6,33.475129,-359.36492)">
      <stop
         offset="0"
         style="stop-color:#35762e"
         id="stop97" />
      <stop
         offset="1"
         style="stop-color:#6daa43"
         id="stop99" />
    </linearGradient>
  </defs>
  <title
     id="title6" />
  <rect
     class="cls-1"
     height="88"
     rx="10"
     ry="10"
     width="92"
     x="18"
     y="2"
     id="rect8" />
  <path
     class="cls-2"
     d="M110,22V12A10,10,0,0,0,100,2H28A10,10,0,0,0,18,12V22Z"
     id="path10" />
  <circle
     class="cls-3"
     cx="64"
     cy="118"
     r="8"
     id="circle12" />
  <path
     class="cls-4"
     d="M64,128a10,10,0,1,1,10-10A10,10,0,0,1,64,128Zm0-16a6,6,0,1,0,6,6A6,6,0,0,0,64,112Z"
     id="path14" />
  <path
     class="cls-4"
     d="M126,120H72a2,2,0,0,1,0-4h54a2,2,0,0,1,0,4Z"
     id="path16" />
  <path
     class="cls-4"
     d="M56,120H2a2,2,0,0,1,0-4H56a2,2,0,0,1,0,4Z"
     id="path18" />
  <path
     class="cls-4"
     d="M64,112a2,2,0,0,1-2-2V90.9a2,2,0,0,1,4,0V110A2,2,0,0,1,64,112Z"
     id="path20" />
  <path
     class="cls-4"
     d="M110,24H18a2,2,0,0,1,0-4h92a2,2,0,0,1,0,4Z"
     id="path22" />
  <path
     class="cls-4"
     d="M97.83,10.39a2,2,0,1,0,2,2,2,2,0,0,0-2-2Z"
     id="path24" />
  <path
     class="cls-4"
     d="M89.89,10.39a2,2,0,1,0,2,2,2,2,0,0,0-2-2Z"
     id="path26" />
  <path
     class="cls-4"
     d="M82,10.39a2,2,0,1,0,2,2,2,2,0,0,0-2-2Z"
     id="path28" />
  <path
     class="cls-4"
     d="M100,92H28A12,12,0,0,1,16,80V12A12,12,0,0,1,28,0h72a12,12,0,0,1,12,12V80A12,12,0,0,1,100,92ZM28,4a8,8,0,0,0-8,8V80a8,8,0,0,0,8,8h72a8,8,0,0,0,8-8V12a8,8,0,0,0-8-8Z"
     id="path36" />
  <circle
     style="clip-rule:evenodd;fill:#ffffff;fill-rule:evenodd;stroke:#515151;stroke-width:1.87914;stroke-linecap:round;stroke-linejoin:round"
     cx="63.475136"
     cy="55.901203"
     r="27.540001"
     id="circle95" />
  <path
     style="fill:url(#SVGID_1_);stroke-width:0.6"
     d="m 67.49513,34.121203 c 0.06,0.3 0.12,0.6 0.12,0.9 0,2.28 -1.86,4.14 -4.14,4.14 -2.28,0 -4.14,-1.86 -4.14,-4.14 0,-0.3 0.06,-0.6 0.12,-0.9 1.32,-0.24 2.7,-0.36 4.02,-0.36 1.38,-0.06 2.7,0.12 4.02,0.36 z m -15.66,5.04 c 0,4.62 2.7,8.64 6.66,10.5 v 21.06 l 4.98,4.98 4.98,-4.98 -0.3,-4.38 2.34,-2.34 -2.34,-2.34 3.54,-3.54 -3.54,-3.54 0.3,-4.92 c 3.9,-1.86 6.659997,-5.88 6.659997,-10.5 0,-0.78 -0.06,-1.5 -0.239997,-2.28 6.659997,4.02 10.739996,11.22 10.799996,19.02 0,12.24 -9.899999,22.2 -22.199996,22.2 -12.24,0 -22.2,-9.9 -22.2,-22.2 0,-7.8 4.08,-15 10.8,-19.02 -0.12,0.78 -0.24,1.5 -0.24,2.28 z m 8.34,13.26 h 1.68 v 16.62 h -1.68 z"
     id="path102" />
</svg>
